<svg xmlns="http://www.w3.org/2000/svg" width="1200" height="396" viewBox="0 0 1200 396">
  <g id="Group_1" data-name="Group 1" transform="translate(-199 -342)">
    <rect id="Rectangle_1" data-name="Rectangle 1" width="1200" height="396" transform="translate(199 342)" fill="#ff5a4a"/>
    <g id="Group_3" data-name="Group 3" transform="translate(14.014 521.144)">
      <path id="Path_6" data-name="Path 6" d="M392.495,70.355l-30.1-5.5-6.079,6.079L325.4,83.856l5,97s-10,6.661-5,15.831,4,20.169,4,20.169h84.642l-3.642-55,10-70L397.03,80.793,392.5,70.356h0Z" fill="#6c63ff"/>
      <path id="b-174" d="M370.679,183.364c8.551,2.041,16.535-.716,17.834-6.158s-4.581-11.507-13.135-13.548a22,22,0,0,0-10.39-.1l-36.34-8.191L325.166,172.5l36.194,6.256a22,22,0,0,0,9.318,4.605h0Z" fill="#ffb6b6"/>
      <path id="Path_7" data-name="Path 7" d="M331.4,88.855l-6-5s-12,6-14,11-14,53-14,53-2.354,26.306,3.823,29.653,45.177,1.347,45.177,1.347l3-20-16-6-2-64Z" fill="#6c63ff"/>
      <circle id="Ellipse_1" data-name="Ellipse 1" cx="26.433" cy="26.433" r="26.433" transform="translate(352.902 9.151)" fill="#ffb6b6"/>
      <path id="Path_8" data-name="Path 8" d="M360.377,59.05c-3.167.283-8.336-7.818-8.106-15.663.148-5.047-4.234-6.039-4.559-12.548-.19-3.793,5.636-4.975,6.036-8.017a17.992,17.992,0,0,1,4.725-9.671c3.832-3.892,6.537-2.627,11.043-7.137,2.713-2.716,2.018-3.46,3.845-4.664,5.274-3.476,14.749.291,20.416,5.367,1.961,1.756,9.27-.163,12.463,4.8,3.762,5.843,2.888,17.759,1.275,19.332-.98.955-3.218-1.379-9.284-2.877-5.616-1.387-.318,5.472-6.811,4.321-7.677-1.361-9.181-3.7-12.056-2.3-3.039,1.481-5.414,6.067-4.725,9.671.342,1.789,1.334,2.786.775,3.7-1.021,1.661-2.193.032-3.5,1.7-1.523,1.938,2.262,6.911,1.549,7.392-.144.1-.578.084-4.664-3.845-1.631-1.569-2.11-2.532-2.429-2.385-.517.239-3.9,3.394-2.61,5.886,2.012,3.877-.563,4,0,6.608.581,2.693-1.369.156-3.382.336h0Z" fill="#2f2e41"/>
      <path id="c-175" d="M388.476,187.479c-7.794,4.068-12.012,11.386-9.422,16.346s11.005,5.681,18.8,1.611a22,22,0,0,0,7.908-6.74l32.8-17.652-8.612-15.217-31.42,19.016a22,22,0,0,0-10.054,2.636Z" fill="#ffb6b6"/>
      <path id="Path_9" data-name="Path 9" d="M414.4,92.855s9-6,15,10c4.734,12.623,13.513,49.83,17.008,64.975a11.27,11.27,0,0,1-3.5,10.962l-4.009,3.564-19.5,14.5-13.3-19.347,16.148-9.736-18.415-39.949L414.4,92.855Z" fill="#6c63ff"/>
    </g>
    <text id="Teaming_up_with_the_greatest_mind_of_all_as_placeholder" data-name="Teaming up with the greatest  mind of all as placeholder" transform="translate(485 474)" fill="#fff" font-size="52" font-family="Poppins-ExtraBold, Poppins" font-weight="800"><tspan x="0" y="0">Teaming up with the greatest</tspan><tspan x="0" y="78" xml:space="preserve"> mind of all as placeholder</tspan></text>
  </g>
</svg>
