<svg xmlns="http://www.w3.org/2000/svg" width="1200" height="300" viewBox="0 0 1200 300">
  <g id="banner-one-big" transform="translate(-199 -342)">
    <rect id="Rectangle_1" data-name="Rectangle 1" width="1200" height="300" transform="translate(199 342)" fill="#ff5a4a"/>
    <g id="Group_3" data-name="Group 3" transform="translate(36.014 470.571)">
      <path id="Path_6" data-name="Path 6" d="M378.146,69.2l-23.795-4.348-4.806,4.806-24.44,10.215,3.953,76.68s-7.905,5.266-3.953,12.515,3.162,15.944,3.162,15.944H395.18L392.3,141.536,400.206,86.2l-18.474-8.745L378.15,69.2h0Z" transform="translate(-5.664 -13.586)" fill="#6c63ff"/>
      <path id="b-174" d="M361.145,177.5c6.76,1.613,13.071-.566,14.1-4.868s-3.621-9.1-10.383-10.71a17.391,17.391,0,0,0-8.214-.079l-28.727-6.475-2.753,13.544,28.612,4.945a17.391,17.391,0,0,0,7.366,3.64h0Z" transform="translate(-5.909 -32.546)" fill="#ffb6b6"/>
      <path id="Path_7" data-name="Path 7" d="M324.185,87.808l-4.743-3.953s-9.486,4.743-11.067,8.7-11.067,41.9-11.067,41.9-1.861,20.8,3.022,23.441,35.713,1.065,35.713,1.065l2.372-15.81L325.766,138.4l-1.581-50.593Z" transform="translate(0 -17.566)" fill="#6c63ff"/>
      <circle id="Ellipse_1" data-name="Ellipse 1" cx="20.896" cy="20.896" r="20.896" transform="translate(341.183 7.234)" fill="#ffb6b6"/>
      <path id="Path_8" data-name="Path 8" d="M357.723,46.68c-2.5.224-6.59-6.18-6.408-12.382.117-3.99-3.347-4.774-3.6-9.919-.15-3,4.455-3.933,4.772-6.338a14.223,14.223,0,0,1,3.735-7.645c3.029-3.077,5.168-2.077,8.73-5.642,2.145-2.147,1.6-2.735,3.04-3.687,4.169-2.748,11.659.23,16.139,4.243,1.55,1.388,7.328-.129,9.852,3.794,2.974,4.619,2.283,14.039,1.008,15.282-.775.755-2.544-1.09-7.339-2.274-4.44-1.1-.251,4.326-5.384,3.416-6.069-1.076-7.258-2.925-9.53-1.818A7.763,7.763,0,0,0,369,31.355c.27,1.414,1.055,2.2.613,2.925-.807,1.313-1.734.025-2.767,1.344-1.2,1.532,1.788,5.463,1.225,5.844-.114.079-.457.066-3.687-3.04-1.289-1.24-1.668-2-1.92-1.885-.409.189-3.083,2.683-2.063,4.653,1.591,3.065-.445,3.162,0,5.224.459,2.129-1.082.123-2.674.266h0Z" transform="translate(-10.631)" fill="#2f2e41"/>
      <path id="c-175" d="M386.342,182.943c-6.161,3.216-9.5,9-7.448,12.922s8.7,4.491,14.862,1.274a17.391,17.391,0,0,0,6.251-5.328l25.929-13.954-6.808-12.029L394.29,180.859a17.392,17.392,0,0,0-7.948,2.084Z" transform="translate(-17.038 -34.737)" fill="#ffb6b6"/>
      <path id="Path_9" data-name="Path 9" d="M412.186,92.624s7.115-4.743,11.858,7.905c3.742,9.979,10.682,39.391,13.445,51.364a8.909,8.909,0,0,1-2.767,8.666l-3.169,2.817-15.415,11.463-10.514-15.294,12.765-7.7-14.557-31.58,8.354-27.644Z" transform="translate(-22.388 -19.22)" fill="#6c63ff"/>
    </g>
    <text id="Teaming_up_with_the_greatest_mind_of_all_as_placeholder" data-name="Teaming up with the greatest  mind of all as placeholder" transform="translate(542 454)" fill="#fff" font-size="39" font-family="Poppins-ExtraBold, Poppins" font-weight="800"><tspan x="0" y="0">Teaming up with the greatest</tspan><tspan x="0" y="59" xml:space="preserve"> mind of all as placeholder</tspan></text>
  </g>
</svg>
