<svg xmlns="http://www.w3.org/2000/svg" width="871" height="396" viewBox="0 0 871 396">
  <g id="banner-two" transform="translate(-126 -616)">
    <rect id="Rectangle_1" data-name="Rectangle 1" width="871" height="396" transform="translate(126 616)" fill="#ff5a4a"/>
    <g id="Group_3" data-name="Group 3" transform="translate(176.97 814)">
      <path id="Path_6" data-name="Path 6" d="M386.539,69.877l-27.481-5.022-5.55,5.55L325.275,82.2l4.565,88.566s-9.13,6.082-4.565,14.454,3.652,18.416,3.652,18.416h77.282l-3.325-50.218,9.131-63.914-21.334-10.1-4.141-9.53h0Z" transform="translate(-299.307 -5.639)" fill="#6c63ff"/>
      <path id="b-174" d="M366.722,180.93c7.807,1.864,15.1-.654,16.283-5.623s-4.183-10.506-11.993-12.37a20.088,20.088,0,0,0-9.487-.09l-33.18-7.479-3.178,15.645,33.047,5.712a20.089,20.089,0,0,0,8.508,4.2h0Z" transform="translate(-299.408 -13.509)" fill="#ffb6b6"/>
      <path id="Path_7" data-name="Path 7" d="M328.4,88.421l-5.478-4.565S311.966,89.334,310.14,93.9s-12.783,48.392-12.783,48.392-2.15,24.019,3.49,27.075S342.1,170.6,342.1,170.6l2.739-18.261-14.609-5.478Z" transform="translate(-296.955 -7.291)" fill="#6c63ff"/>
      <circle id="Ellipse_1" data-name="Ellipse 1" cx="24.135" cy="24.135" r="24.135" transform="translate(51.082 8.355)" fill="#ffb6b6"/>
      <path id="Path_8" data-name="Path 8" d="M359.275,53.915c-2.891.258-7.611-7.138-7.4-14.3.135-4.608-3.865-5.514-4.163-11.457-.173-3.463,5.146-4.543,5.511-7.32a16.428,16.428,0,0,1,4.314-8.83c3.5-3.554,5.968-2.4,10.083-6.517,2.477-2.48,1.843-3.159,3.511-4.259,4.815-3.174,13.467.266,18.641,4.9,1.79,1.6,8.464-.149,11.379,4.379,3.435,5.335,2.637,16.215,1.164,17.651-.895.872-2.938-1.259-8.477-2.627-5.128-1.266-.291,5-6.219,3.945-7.01-1.243-8.382-3.375-11.008-2.1a8.964,8.964,0,0,0-4.314,8.83c.312,1.633,1.218,2.544.707,3.375-.932,1.516-2,.029-3.2,1.551-1.391,1.77,2.065,6.311,1.415,6.749-.131.088-.528.077-4.259-3.511-1.49-1.433-1.926-2.312-2.218-2.177-.472.219-3.564,3.1-2.383,5.374,1.837,3.54-.514,3.65,0,6.034.53,2.459-1.25.143-3.088.307h0Z" transform="translate(-301.368 0)" fill="#2f2e41"/>
      <path id="c-175" d="M387.59,185.6c-7.116,3.714-10.968,10.4-8.6,14.924s10.049,5.187,17.166,1.471a20.089,20.089,0,0,0,7.22-6.154l29.951-16.117-7.863-13.894L396.771,183.19a20.09,20.09,0,0,0-9.18,2.407Z" transform="translate(-304.028 -14.419)" fill="#ffb6b6"/>
      <path id="Path_9" data-name="Path 9" d="M413.478,92.76s8.217-5.478,13.7,9.13c4.322,11.525,12.338,45.5,15.529,59.325a10.291,10.291,0,0,1-3.195,10.008l-3.66,3.254-17.8,13.239L405.9,170.052l14.744-8.889-16.814-36.475,9.645-31.928h0Z" transform="translate(-306.248 -7.978)" fill="#6c63ff"/>
    </g>
    <text id="Teaming_up_with_the_greatest_mind_of_all_as_placeholder" data-name="Teaming up with the greatest
 mind of all as placeholder" transform="translate(289 797)" fill="#fff" font-size="44" font-family="Poppins-ExtraBold, Poppins" font-weight="800"><tspan x="0" y="0">Teaming up with the greatest</tspan><tspan x="0" y="65" xml:space="preserve"> mind of all as placeholder</tspan></text>
  </g>
</svg>
