<svg xmlns="http://www.w3.org/2000/svg" viewBox="0 0 396.31 114.85"><defs><style>.cls-1{fill:none;}.cls-2{fill:#007bff;}.cls-3{fill:#007cfe;}.cls-4{fill:#007dfe;}.cls-5{fill:#007efd;}.cls-6{fill:#007ffc;}.cls-7{fill:#0080fb;}.cls-8{fill:#0081fb;}.cls-9{fill:#0082fa;}.cls-10{fill:#0083f9;}.cls-11{fill:#0084f8;}.cls-12{fill:#0085f8;}.cls-13{fill:#0086f7;}.cls-14{fill:#0087f6;}.cls-15{fill:#0088f6;}.cls-16{fill:#0089f5;}.cls-17{fill:#008af4;}.cls-18{fill:#008cf3;}.cls-19{fill:#008df2;}.cls-20{fill:#008ef1;}.cls-21{fill:#008ff1;}.cls-22{fill:#0090f0;}.cls-23{fill:#0091ef;}.cls-24{fill:#0092ee;}.cls-25{fill:#0093ee;}.cls-26{fill:#0094ed;}.cls-27{fill:#0095ec;}.cls-28{fill:#0096eb;}.cls-29{fill:#0097eb;}.cls-30{fill:#0098ea;}.cls-31{fill:#0099e9;}.cls-32{fill:#009ae9;}.cls-33{fill:#009ce7;}.cls-34{fill:#009de6;}.cls-35{fill:#009ee6;}.cls-36{fill:#009fe5;}.cls-37{fill:#00a0e4;}.cls-38{fill:#00a2e4;}.cls-39{fill:#00a3e3;}.cls-40{fill:#00a4e2;}.cls-41{fill:#00a5e1;}.cls-42{fill:#00a6e1;}.cls-43{fill:#00a7e0;}.cls-44{fill:#00a8df;}.cls-45{fill:#00a9de;}.cls-46{fill:#00aade;}.cls-47{fill:#00abdd;}.cls-48{fill:#00acdc;}.cls-49{fill:#00addc;}.cls-50{fill:#00aedb;}.cls-51{fill:#00afda;}.cls-52{fill:#00b0d9;}.cls-53{fill:#00b1d9;}</style></defs><g id="Layer_2" data-name="Layer 2"><g id="GenAI"><path class="cls-1" d="M0,0V114.85H396.31V0ZM58.84,67.9c-12.06,0-19.73-5.14-22.9-9.62l4.73-6.56c4.51,6.17,10.2,9.06,18.17,9.2,8.75.18,12.62-3.06,12.62-8.35,0-4.48-2.72-7-9.27-8.18l-9.38-1.73c-10.24-1.86-14.6-6.87-14.6-13.88,0-8.08,7.6-13.89,19.55-13.89,10.68,0,16.16,3.21,19.32,7.12l-4.32,5.85c-3.53-4.23-8.26-6.45-15-6.45-8,0-11.54,2.75-11.54,7.19,0,3.91,2.83,6.13,9.42,7.3l9.19,1.65c10.5,1.87,14.9,6.91,14.9,14.63C79.73,60.78,73.36,67.9,58.84,67.9ZM95,67.16H87.48v-39a22.78,22.78,0,0,0,7.55,0ZM91.27,24.72c-3.27,0-5.51-2.08-5.51-4.93s2.24-4.9,5.51-4.9a6.09,6.09,0,0,1,3.3.89,4.61,4.61,0,0,1,2.18,4A4.67,4.67,0,0,1,95,23.52,5.84,5.84,0,0,1,91.27,24.72Zm69.15,42.44h-1.16V42.35a15.94,15.94,0,0,0-.27-3.09c-.6-3-2.18-4.66-4.79-5.3a11.94,11.94,0,0,0-2.87-.32,12.86,12.86,0,0,0-1.66.11,10.4,10.4,0,0,0-4.43,1.49A10.22,10.22,0,0,0,141,41.09a21.1,21.1,0,0,0-.82,6.19V67.16h-7.52V42.77a13,13,0,0,0-.87-5.16,6.07,6.07,0,0,0-4.7-3.74,11.92,11.92,0,0,0-2.4-.23,14.58,14.58,0,0,0-2.12.16,10,10,0,0,0-4.42,1.76A11.09,11.09,0,0,0,114,42.64a22.44,22.44,0,0,0-.44,4.64V67.16H106v-39h7.41v9.2h.33a16.48,16.48,0,0,1,4.16-6.62,11.88,11.88,0,0,1,4.38-2.56,15.85,15.85,0,0,1,4.48-.74l.65,0a19.29,19.29,0,0,1,3.88.37,10.35,10.35,0,0,1,8.55,9.54h.34c.17-.51.36-1,.55-1.44A14.31,14.31,0,0,1,145,30.1a12.17,12.17,0,0,1,4.4-2.17,17.07,17.07,0,0,1,4.38-.53h.11a18,18,0,0,1,4.54.53,10.69,10.69,0,0,1,4.65,2.45c2.59,2.41,3.8,6.23,3.8,11.43V67.16h-6.43Zm53.92-4.93A15.59,15.59,0,0,1,210,65.68a17.76,17.76,0,0,1-4.43,1.65,22.16,22.16,0,0,1-4.49.55l-.53,0a21,21,0,0,1-4-.36,15.54,15.54,0,0,1-4.6-1.6,14.13,14.13,0,0,1-4.73-4.17,18.38,18.38,0,0,1-2.16-3.91h-.34V77.77h-7.56V28.14h7.56v9.34h.34c.25-.63.52-1.23.82-1.81a14.84,14.84,0,0,1,4.25-5.22,14,14,0,0,1,4.4-2.21,20,20,0,0,1,4.47-.79c.53,0,1.06-.05,1.62-.05a22.74,22.74,0,0,1,2.9.21,18.76,18.76,0,0,1,4.58,1.16,16.73,16.73,0,0,1,4.66,2.82,17.38,17.38,0,0,1,4.88,7.19,25.13,25.13,0,0,1,1.48,8.85,28.14,28.14,0,0,1-.69,6.37A18.69,18.69,0,0,1,214.34,62.23Zm22.87,5.66h-.27a12.67,12.67,0,0,1-4.28-.65A7.31,7.31,0,0,1,227.88,62a14.53,14.53,0,0,1-.51-4.06V15.63h7.56V57.89c0,1.92.64,3.08,1.95,3.54a4.75,4.75,0,0,0,1.54.23,5.53,5.53,0,0,0,2.57-.53l.67,5.85A10.42,10.42,0,0,1,237.21,67.89Zm13.5-.73h-2.64v-39l.64.11a24.69,24.69,0,0,0,4.52.17,17.44,17.44,0,0,0,2.4-.28v39h-4.92ZM253,24.63a7.31,7.31,0,0,1-1.17.09,6.07,6.07,0,0,1-3.39-1,4.64,4.64,0,0,1-2.12-4,4.58,4.58,0,0,1,1.73-3.67,5.91,5.91,0,0,1,3.78-1.23c.23,0,.45,0,.67,0A4.87,4.87,0,0,1,257.26,19a5,5,0,0,1,.08.79c0,.08,0,.16,0,.24A4.82,4.82,0,0,1,253,24.63Zm32.09,9.57h-7.94v33h-7.56v-33H262V28.11h7.37a14.33,14.33,0,0,1-.6-4.23,10.88,10.88,0,0,1,2-6.36,11.77,11.77,0,0,1,4.33-3.68,17.23,17.23,0,0,1,4.43-1.5,23.22,23.22,0,0,1,4.36-.41H284a28,28,0,0,1,4.53.38,18.26,18.26,0,0,1,4.59,1.37,11.91,11.91,0,0,1,3.51,2.37l-3.17,4.4-.81,1.14a10,10,0,0,0-3.77-2.52,13.44,13.44,0,0,0-4.56-.85l-.35,0a10.47,10.47,0,0,0-4.13.75,5.57,5.57,0,0,0-3.39,5.53,9.83,9.83,0,0,0,.6,3.63h16.23V34.2h-8.14Zm49.43,24.4a23.59,23.59,0,0,1-2.44,11.29,14.73,14.73,0,0,1-4.26,5,17.11,17.11,0,0,1-4.4,2.28A23.48,23.48,0,0,1,319,78.2a33.48,33.48,0,0,1-4.5.31h-.15a34.31,34.31,0,0,1-4.38-.28,28.48,28.48,0,0,1-4.56-1,22.45,22.45,0,0,1-4.62-2,16.28,16.28,0,0,1-4.72-4,15.1,15.1,0,0,1-.93-1.33l.82-.87L300,64.83c.09.14.18.26.26.39A15.53,15.53,0,0,0,305,69.85a15.18,15.18,0,0,0,4.61,1.83,21.44,21.44,0,0,0,4.54.48h.17a19.73,19.73,0,0,0,4.32-.44,10.58,10.58,0,0,0,4.41-2c2.64-2.15,3.93-5.76,3.93-11v-5h-.34a15.64,15.64,0,0,1-4.07,6.71,12.41,12.41,0,0,1-4.38,2.65,16,16,0,0,1-4.47.83l-.93,0a21.26,21.26,0,0,1-3.6-.29A13.31,13.31,0,0,1,304.63,62a10.79,10.79,0,0,1-4.83-6.1,22,22,0,0,1-1.05-7.18V28.14h7.56v20c0,3.55.85,6,2.5,7.51a7.87,7.87,0,0,0,4.61,1.88,14.18,14.18,0,0,0,1.63.09,15.58,15.58,0,0,0,2.88-.26,10.88,10.88,0,0,0,4.42-1.85,11.11,11.11,0,0,0,4.16-6.82,21.94,21.94,0,0,0,.5-4.81V28.14h7.55V58.6Z"/><path class="cls-1" d="M203.9,34.69a14.78,14.78,0,0,0-4.57-1c-.43,0-.86,0-1.31,0a16.44,16.44,0,0,0-3.19.31,13,13,0,0,0-4.43,1.71,11.43,11.43,0,0,0-4.26,4.93,16.69,16.69,0,0,0-1.41,7A15.51,15.51,0,0,0,187,56.17a11.21,11.21,0,0,0,4.72,4.13,14.07,14.07,0,0,0,4.58,1.23,17.18,17.18,0,0,0,1.77.1,18.46,18.46,0,0,0,2.74-.21A13.2,13.2,0,0,0,205.2,60a10.89,10.89,0,0,0,4.29-4.35,16.59,16.59,0,0,0,1.79-8,15.25,15.25,0,0,0-2.69-9.39A10.92,10.92,0,0,0,203.9,34.69Z"/><path class="cls-2" d="M91.27,14.89c-3.27,0-5.51,2-5.51,4.9s2.24,4.93,5.51,4.93a5.84,5.84,0,0,0,3.7-1.2l-.4-7.74A6.09,6.09,0,0,0,91.27,14.89Z"/><path class="cls-2" d="M87.48,28.14v39H95v-39A22.78,22.78,0,0,1,87.48,28.14Z"/><path class="cls-2" d="M64.83,37.55,55.64,35.9c-6.59-1.17-9.42-3.39-9.42-7.3,0-4.44,3.57-7.19,11.54-7.19,6.74,0,11.47,2.22,15,6.45L77.08,22c-3.16-3.91-8.64-7.12-19.32-7.12-11.95,0-19.55,5.81-19.55,13.89,0,7,4.36,12,14.6,13.88l9.38,1.73c6.55,1.23,9.27,3.7,9.27,8.18,0,5.29-3.87,8.53-12.62,8.35-8-.14-13.66-3-18.17-9.2l-4.73,6.56c3.17,4.48,10.84,9.62,22.9,9.62,14.52,0,20.89-7.12,20.89-15.72C79.73,44.46,75.33,39.42,64.83,37.55Z"/><path class="cls-2" d="M96.75,19.79a4.61,4.61,0,0,0-2.18-4l.4,7.74A4.67,4.67,0,0,0,96.75,19.79Z"/><polygon class="cls-3" points="106.02 67.16 106.25 67.16 106.02 62.66 106.02 67.16"/><polygon class="cls-4" points="106.02 28.14 106.02 62.66 106.25 67.16 110.76 67.16 108.75 28.14 106.02 28.14"/><path class="cls-5" d="M113.43,37.34V31.19l-.16-3.05h-4.52l2,39h2.82V47.28a22.44,22.44,0,0,1,.44-4.64l-.28-5.3Z"/><path class="cls-6" d="M113.76,37.34h0l.28,5.3a11.09,11.09,0,0,1,4.15-7.08l-.25-4.84A16.48,16.48,0,0,0,113.76,37.34Z"/><polygon class="cls-6" points="113.43 28.14 113.27 28.14 113.43 31.19 113.43 28.14"/><path class="cls-7" d="M117.92,30.72l.25,4.84a10,10,0,0,1,4.42-1.76l-.29-5.64A11.88,11.88,0,0,0,117.92,30.72Z"/><path class="cls-8" d="M122.3,28.16l.29,5.64a14.58,14.58,0,0,1,2.12-.16,11.92,11.92,0,0,1,2.4.23l-.33-6.45A15.85,15.85,0,0,0,122.3,28.16Z"/><polygon class="cls-9" points="132.68 67.16 133.34 67.16 132.68 54.31 132.68 67.16"/><path class="cls-9" d="M127.43,27.4l-.65,0,.33,6.45a6.07,6.07,0,0,1,4.7,3.74l-.5-9.84A19.29,19.29,0,0,0,127.43,27.4Z"/><path class="cls-10" d="M131.31,27.77l.5,9.84a13,13,0,0,1,.87,5.16V54.31l.66,12.85h4.51l-1.92-37.33A11.08,11.08,0,0,0,131.31,27.77Z"/><path class="cls-11" d="M140.2,37.31h-.34a11.12,11.12,0,0,0-3.93-7.48l1.92,37.33h2.35V47.28a21.1,21.1,0,0,1,.82-6.19l-.27-5.22C140.56,36.33,140.37,36.8,140.2,37.31Z"/><path class="cls-12" d="M140.75,35.87l.27,5.22a10.22,10.22,0,0,1,4.22-5.85L145,30.1A14.31,14.31,0,0,0,140.75,35.87Z"/><path class="cls-13" d="M145,30.1l.27,5.14a10.4,10.4,0,0,1,4.43-1.49l-.3-5.82A12.17,12.17,0,0,0,145,30.1Z"/><path class="cls-14" d="M153.75,27.4a17.07,17.07,0,0,0-4.38.53l.3,5.82a12.86,12.86,0,0,1,1.66-.11,11.94,11.94,0,0,1,2.87.32l-.34-6.55Z"/><path class="cls-15" d="M153.86,27.41,154.2,34c2.61.64,4.19,2.32,4.79,5.3l-.59-11.32A18,18,0,0,0,153.86,27.41Z"/><polygon class="cls-15" points="159.26 67.16 160.42 67.16 159.26 44.52 159.26 67.16"/><path class="cls-16" d="M158.4,27.94,159,39.26a15.94,15.94,0,0,1,.27,3.09v2.18l1.16,22.63h4.52l-1.89-36.77A10.69,10.69,0,0,0,158.4,27.94Z"/><path class="cls-17" d="M166.85,41.82c0-5.2-1.21-9-3.8-11.43l1.89,36.77h1.91Z"/><polygon class="cls-18" points="177.17 77.77 179.03 77.77 177.17 41.77 177.17 77.77"/><polygon class="cls-19" points="177.17 28.14 177.17 41.77 179.03 77.77 183.54 77.77 180.99 28.14 177.17 28.14"/><path class="cls-20" d="M184.73,47.63a16.69,16.69,0,0,1,1.41-7l-.25-4.92c-.3.58-.57,1.18-.82,1.81h-.34V28.14H181l2.55,49.63h1.19V57.86h.34a18.38,18.38,0,0,0,2.16,3.91l-.28-5.6A15.51,15.51,0,0,1,184.73,47.63Z"/><path class="cls-21" d="M187,56.17l.28,5.6A14.13,14.13,0,0,0,192,65.94l-.29-5.64A11.21,11.21,0,0,1,187,56.17Z"/><path class="cls-21" d="M190.4,35.66l-.26-5.21a14.84,14.84,0,0,0-4.25,5.22l.25,4.92A11.43,11.43,0,0,1,190.4,35.66Z"/><path class="cls-22" d="M191.67,60.3l.29,5.64a15.54,15.54,0,0,0,4.6,1.6l-.31-6A14.07,14.07,0,0,1,191.67,60.3Z"/><path class="cls-22" d="M194.83,34l-.29-5.71a14,14,0,0,0-4.4,2.21l.26,5.21A13,13,0,0,1,194.83,34Z"/><path class="cls-23" d="M198,33.64c.45,0,.88,0,1.31,0L199,27.45a20,20,0,0,0-4.47.79l.29,5.71A16.44,16.44,0,0,1,198,33.64Z"/><path class="cls-23" d="M198,61.63a17.18,17.18,0,0,1-1.77-.1l.31,6a21,21,0,0,0,4,.36l.53,0-.33-6.46A18.46,18.46,0,0,1,198,61.63Z"/><path class="cls-24" d="M200.76,61.42l.33,6.46a22.16,22.16,0,0,0,4.49-.55L205.2,60A13.2,13.2,0,0,1,200.76,61.42Z"/><path class="cls-24" d="M203.9,34.69l-.37-7.08a22.74,22.74,0,0,0-2.9-.21c-.56,0-1.09,0-1.62.05l.32,6.24A14.78,14.78,0,0,1,203.9,34.69Z"/><path class="cls-25" d="M208.59,38.24l-.48-9.47a18.76,18.76,0,0,0-4.58-1.16l.37,7.08A10.92,10.92,0,0,1,208.59,38.24Z"/><path class="cls-25" d="M205.2,60l.38,7.38A17.76,17.76,0,0,0,210,65.68l-.52-10.08A10.89,10.89,0,0,1,205.2,60Z"/><path class="cls-26" d="M208.11,28.77l.48,9.47a15.25,15.25,0,0,1,2.69,9.39,16.59,16.59,0,0,1-1.79,8L210,65.68a15.59,15.59,0,0,0,4.33-3.45l-1.57-30.64A16.73,16.73,0,0,0,208.11,28.77Z"/><path class="cls-27" d="M212.77,31.59l1.57,30.64a18.69,18.69,0,0,0,4.1-8.23l-.79-15.22A17.38,17.38,0,0,0,212.77,31.59Z"/><path class="cls-28" d="M217.65,38.78,218.44,54a28.14,28.14,0,0,0,.69-6.37A25.13,25.13,0,0,0,217.65,38.78Z"/><path class="cls-29" d="M227.37,57.93a14.53,14.53,0,0,0,.51,4.06l-.51-9.89Z"/><path class="cls-30" d="M227.37,15.63V52.1l.51,9.89a7.31,7.31,0,0,0,4.78,5.26L230,15.63Z"/><path class="cls-31" d="M234.93,57.89V23.56l-.41-7.93H230l2.66,51.62a12.67,12.67,0,0,0,4.28.65h.27l-.33-6.46C235.57,61,234.93,59.81,234.93,57.89Z"/><path class="cls-32" d="M238.42,61.66a4.75,4.75,0,0,1-1.54-.23l.33,6.46a10.42,10.42,0,0,0,4.45-.91L241,61.13A5.53,5.53,0,0,1,238.42,61.66Z"/><polygon class="cls-32" points="234.93 15.63 234.52 15.63 234.93 23.56 234.93 15.63"/><path class="cls-33" d="M248.07,28.14v39h2.64l-2-38.91Z"/><path class="cls-33" d="M246.36,19.79a4.64,4.64,0,0,0,2.12,4l-.39-7.64A4.58,4.58,0,0,0,246.36,19.79Z"/><path class="cls-34" d="M251.87,14.89a5.91,5.91,0,0,0-3.78,1.23l.39,7.64a6.07,6.07,0,0,0,3.39,1,7.31,7.31,0,0,0,1.17-.09l-.5-9.69C252.32,14.92,252.1,14.89,251.87,14.89Z"/><path class="cls-34" d="M248.71,28.25l2,38.91h4.52l-2-38.74A24.69,24.69,0,0,1,248.71,28.25Z"/><path class="cls-35" d="M255.63,28.14a17.44,17.44,0,0,1-2.4.28l2,38.74h.4Z"/><path class="cls-35" d="M252.54,14.94l.5,9.69a4.82,4.82,0,0,0,4.28-4.6l-.06-1A4.87,4.87,0,0,0,252.54,14.94Z"/><path class="cls-36" d="M257.26,19l.06,1c0-.08,0-.16,0-.24A5,5,0,0,0,257.26,19Z"/><polygon class="cls-36" points="262 28.11 262 34.2 262.56 34.2 262.25 28.11 262 28.11"/><polygon class="cls-37" points="262.25 28.11 262.56 34.2 267.07 34.2 266.76 28.11 262.25 28.11"/><path class="cls-38" d="M268.77,23.88a14.33,14.33,0,0,0,.6,4.23h-2.61l.32,6.09h2.55v33h3.66l-2.56-49.64A10.88,10.88,0,0,0,268.77,23.88Z"/><path class="cls-39" d="M270.73,17.52l2.56,49.64h3.9V55.22l-2.13-41.38A11.77,11.77,0,0,0,270.73,17.52Z"/><path class="cls-40" d="M277,28.11a9.83,9.83,0,0,1-.6-3.63A5.57,5.57,0,0,1,279.83,19l-.34-6.61a17.23,17.23,0,0,0-4.43,1.5l2.13,41.38v-21h3.43l-.32-6.09Z"/><path class="cls-41" d="M284,18.2l.35,0L284,11.93h-.14a23.22,23.22,0,0,0-4.36.41l.34,6.61A10.47,10.47,0,0,1,284,18.2Z"/><polygon class="cls-41" points="280.31 28.11 280.62 34.2 285.13 34.2 284.82 28.11 280.31 28.11"/><path class="cls-42" d="M288.87,19.07l-.35-6.76a28,28,0,0,0-4.53-.38l.32,6.29A13.44,13.44,0,0,1,288.87,19.07Z"/><polygon class="cls-42" points="284.82 28.11 285.13 34.2 289.65 34.2 289.33 28.11 284.82 28.11"/><path class="cls-43" d="M292.64,21.59l.81-1.14-.34-6.77a18.26,18.26,0,0,0-4.59-1.37l.35,6.76A10,10,0,0,1,292.64,21.59Z"/><polygon class="cls-43" points="293.27 28.11 289.33 28.11 289.65 34.2 293.27 34.2 293.27 28.11"/><path class="cls-43" d="M295.14,70a15.1,15.1,0,0,0,.93,1.33l-.11-2.2Z"/><path class="cls-44" d="M300,64.83,296,69.11l.11,2.2a16.28,16.28,0,0,0,4.72,4l-.52-10.09C300.19,65.09,300.1,65,300,64.83Z"/><path class="cls-44" d="M298.75,48.76a22,22,0,0,0,1.05,7.18l-1.05-20.39Z"/><path class="cls-44" d="M296.62,16.05a11.91,11.91,0,0,0-3.51-2.37l.34,6.77Z"/><path class="cls-45" d="M300.27,65.22l.52,10.09a22.45,22.45,0,0,0,4.62,2L305,69.85A15.53,15.53,0,0,1,300.27,65.22Z"/><path class="cls-45" d="M298.75,28.14v7.41l1.05,20.39a10.79,10.79,0,0,0,4.83,6.1l-1.75-33.9Z"/><path class="cls-46" d="M305,69.85l.38,7.42a28.48,28.48,0,0,0,4.56,1l-.33-6.55A15.18,15.18,0,0,1,305,69.85Z"/><path class="cls-46" d="M306.31,48.16v-20h-3.43L304.63,62a13.31,13.31,0,0,0,4.59,1.59l-.41-8C307.16,54.15,306.31,51.71,306.31,48.16Z"/><path class="cls-47" d="M308.81,55.67l.41,8a21.26,21.26,0,0,0,3.6.29l.93,0-.33-6.34A7.87,7.87,0,0,1,308.81,55.67Z"/><path class="cls-47" d="M309.64,71.68l.33,6.55a34.31,34.31,0,0,0,4.38.28h.15l-.32-6.35A21.44,21.44,0,0,1,309.64,71.68Z"/><path class="cls-48" d="M315.05,57.64a14.18,14.18,0,0,1-1.63-.09l.33,6.34a16,16,0,0,0,4.47-.83l-.29-5.68A15.58,15.58,0,0,1,315.05,57.64Z"/><path class="cls-48" d="M314.35,72.17h-.17l.32,6.35a33.48,33.48,0,0,0,4.5-.31l-.33-6.47A19.73,19.73,0,0,1,314.35,72.17Z"/><path class="cls-49" d="M317.93,57.38l.29,5.68a12.41,12.41,0,0,0,4.38-2.65l-.25-4.88A10.88,10.88,0,0,1,317.93,57.38Z"/><path class="cls-49" d="M318.67,71.73,319,78.2a23.48,23.48,0,0,0,4.46-1.07l-.38-7.44A10.58,10.58,0,0,1,318.67,71.73Z"/><path class="cls-50" d="M327,58.67c0,5.26-1.29,8.87-3.93,11l.38,7.44a17.11,17.11,0,0,0,4.4-2.28L327,58.3Z"/><path class="cls-50" d="M322.35,55.53l.25,4.88a15.64,15.64,0,0,0,4.07-6.71h.1l-.26-5A11.11,11.11,0,0,1,322.35,55.53Z"/><path class="cls-51" d="M327,28.14V43.9a21.94,21.94,0,0,1-.5,4.81l.26,5H327v4.6l.85,16.55a14.73,14.73,0,0,0,4.26-5L330,28.14Z"/><path class="cls-52" d="M330,28.14l2.15,41.75a23.59,23.59,0,0,0,2.44-11.29V29.73l-.08-1.59Z"/><polygon class="cls-53" points="334.48 28.14 334.56 29.73 334.56 28.14 334.48 28.14"/></g></g></svg>