<svg xmlns="http://www.w3.org/2000/svg" viewBox="0 0 995.17 267.02"><defs><style>.cls-1{fill:#007bff;}</style></defs><g id="Layer_2" data-name="Layer 2"><g id="GenAI"><path class="cls-1" d="M115.82,105.15l-38.51-7c-21.07-3.77-30-11.3-30-24.14,0-13.68,11.58-23.31,39.35-23.31,26.23,0,44,11.87,55.4,27.63l21.21-29.16c-12-16.33-32.94-31.12-76.61-31.12C38.79,18.07,8.79,42.49,8.79,75.7c0,29.45,19,50.52,56.24,57.5l40.47,7.53c18.14,3.49,28,12,28,26.51,0,17.59-14.51,26.94-43.39,26.24-27.77-.56-51.64-14-68.52-38.38L0,187.06C10.19,204.36,43.54,228,90.15,228c58.6,0,82.47-28.61,82.47-62.66C172.62,132.36,155.17,112.54,115.82,105.15Z"/><rect class="cls-1" x="173.76" y="70.54" width="36.14" height="154.48"/><path class="cls-1" d="M412.4,67.61c-21.91,0-38.8,9.35-49,37.54h-1.26c-3.21-23-19.54-37.54-46.33-37.54-24.42,0-40.75,10.74-51.21,36.7h-1.26V70.54H227.78V225h36.14v-73.4c0-38.8,14.93-53.17,36.14-53.17C317.92,98.45,327,109.33,327,134v91h36.15v-73.4c0-38.8,14.79-53.17,35.86-53.17,18,0,27.07,9.63,27.07,31.54v95h36.14V125.94C462.21,87.15,445.33,67.61,412.4,67.61Z"/><path class="cls-1" d="M995.1,189V70.54H959v62.38c0,32.37-13.12,48.42-39.08,48.42-18.28,0-29.72-10.89-29.72-34.47V76.37a5.85,5.85,0,0,0-5.83-5.85l-27.4-.12h-49a28,28,0,0,1-2.24-11.58c0-14.24,10.47-21.49,26.8-21.49,13.39,0,26,5.44,33.77,14.51l19-27.35C874.08,12.77,856.36,6.35,831.52,6.35c-38.93,0-62.1,19.81-62.1,48.14A55.84,55.84,0,0,0,771.8,70.4H719.7a5.86,5.86,0,0,0-5.86,5.93l.3,24.35v87H693.91A16.87,16.87,0,0,1,677,170.82V54.92h-37.1v76.85c-5.49-41-32.4-64.16-67.19-64.16-30.28,0-47.45,13.68-57.63,38h-1.26v-.34a56.81,56.81,0,0,0-4.28-21c-7.91-19.11-26-32.63-48.09-32.63h-5.11l4.88,37.1h.23c9.31,0,16.23,7.52,16.23,16.82V267h36.14V190h1.26c9.63,23,28.46,38,57.07,38,36.76,0,62.42-23,67.75-63.8v7.08A53.78,53.78,0,0,0,693.72,225h56.56V106.54a5.86,5.86,0,0,1,5.86-5.86h16.21V225H808.5V100.68h39.66a5.86,5.86,0,0,1,5.86,5.86v45.35c0,39.91,19.53,60.29,54.56,60.29,21.21,0,40.47-11,49.26-37.82H959v15.35c0,1.14,0,2.24.08,3.33l.45,21.71c0,11.32-8.94,16.13-18.25,16.13H535.88L535.57,267H942.8a52.37,52.37,0,0,0,52.37-52.37V189Zm-436,7.93c-26.51,0-45.21-17.45-45.21-49.26,0-32,18.7-49.26,45.21-49.26,27.77,0,45.22,17.3,45.22,49.26C604.29,179.52,586.84,197,559.07,197Z"/><rect class="cls-1" x="173.76" width="36.14" height="36.14"/><rect class="cls-1" x="714.19" width="36.14" height="36.14"/></g></g></svg>